<svg width="36" height="35" viewBox="0 0 36 35" fill="none" xmlns="http://www.w3.org/2000/svg">
<path d="M7.5 29.1665C6.675 29.1665 5.9685 28.8807 5.3805 28.309C4.7925 27.7373 4.499 27.051 4.5 26.2498V5.83317C4.5 5.03109 4.794 4.34421 5.382 3.77255C5.97 3.20088 6.676 2.91553 7.5 2.91651H28.5C29.325 2.91651 30.0315 3.20234 30.6195 3.77401C31.2075 4.34567 31.501 5.03206 31.5 5.83317V14.1092C30.8 13.7689 30.0685 13.5196 29.3055 13.3611C28.5425 13.2026 27.774 13.1239 27 13.1248C26.275 13.1248 25.5875 13.1919 24.9375 13.3261C24.2875 13.4603 23.65 13.6484 23.025 13.8905C23.1 13.6474 23.1565 13.4044 23.1945 13.1613C23.2325 12.9182 23.251 12.663 23.25 12.3957C23.25 10.986 22.7375 9.78283 21.7125 8.7863C20.6875 7.78977 19.45 7.29151 18 7.29151C16.55 7.29151 15.3125 7.78977 14.2875 8.7863C13.2625 9.78283 12.75 10.986 12.75 12.3957C12.75 13.8054 13.2625 15.0085 14.2875 16.005C15.3125 17.0016 16.55 17.4998 18 17.4998H18.375C18.05 17.9373 17.769 18.4055 17.532 18.9042C17.295 19.403 17.0885 19.9192 16.9125 20.453C15.0625 20.5745 13.3435 20.9998 11.7555 21.729C10.1675 22.4582 8.749 23.4061 7.5 24.5728V26.2498H16.95C17.125 26.7846 17.325 27.295 17.55 27.7811C17.775 28.2672 18.05 28.729 18.375 29.1665H7.5ZM25.5 30.6248L25.05 28.4373C24.75 28.3158 24.4685 28.188 24.2055 28.0538C23.9425 27.9196 23.674 27.7558 23.4 27.5623L21.225 28.2186L19.725 25.7394L21.45 24.2811C21.4 23.9408 21.375 23.6248 21.375 23.3332C21.375 23.0415 21.4 22.7255 21.45 22.3853L19.725 20.9269L21.225 18.4478L23.4 19.104C23.675 18.9096 23.944 18.7457 24.207 18.6125C24.47 18.4794 24.751 18.3515 25.05 18.229L25.5 16.0415H28.5L28.95 18.229C29.25 18.3505 29.5315 18.4842 29.7945 18.63C30.0575 18.7759 30.326 18.9582 30.6 19.1769L32.775 18.4478L34.275 20.9998L32.55 22.4582C32.6 22.7498 32.625 23.0537 32.625 23.3696C32.625 23.6856 32.6 23.9894 32.55 24.2811L34.275 25.7394L32.775 28.2186L30.6 27.5623C30.325 27.7568 30.0565 27.9211 29.7945 28.0553C29.5325 28.1894 29.251 28.3168 28.95 28.4373L28.5 30.6248H25.5ZM27 26.2498C27.825 26.2498 28.5315 25.964 29.1195 25.3923C29.7075 24.8207 30.001 24.1343 30 23.3332C30 22.5311 29.706 21.8442 29.118 21.2725C28.53 20.7009 27.824 20.4155 27 20.4165C26.175 20.4165 25.4685 20.7023 24.8805 21.274C24.2925 21.8457 23.999 22.5321 24 23.3332C24 24.1353 24.294 24.8221 24.882 25.3938C25.47 25.9655 26.176 26.2508 27 26.2498Z" fill="#022150"/>
</svg>
