<svg width="72" height="72" viewBox="0 0 72 72" fill="none" xmlns="http://www.w3.org/2000/svg">
<circle cx="36" cy="36" r="30" fill="#022150"/>
<path d="M72 36C72 55.8823 55.8823 72 36 72C16.1177 72 0 55.8823 0 36C0 16.1177 16.1177 0 36 0C55.8823 0 72 16.1177 72 36ZM3.6 36C3.6 53.894 18.106 68.4 36 68.4C53.894 68.4 68.4 53.894 68.4 36C68.4 18.106 53.894 3.6 36 3.6C18.106 3.6 3.6 18.106 3.6 36Z" fill="#022150"/>
<path fill-rule="evenodd" clip-rule="evenodd" d="M41.44 30.2364C41.48 30.3063 41.55 30.3563 41.64 30.3563C44.04 30.3563 46 32.3141 46 34.7114V40.6448C46 43.0422 44.04 45 41.64 45H30.36C27.95 45 26 43.0422 26 40.6448V34.7114C26 32.3141 27.95 30.3563 30.36 30.3563C30.44 30.3563 30.52 30.3163 30.55 30.2364L30.61 30.1165C30.6445 30.044 30.6799 29.9694 30.7158 29.8938C30.9716 29.3549 31.2546 28.7588 31.43 28.4084C31.89 27.5094 32.67 27.01 33.64 27H38.35C39.32 27.01 40.11 27.5094 40.57 28.4084C40.7275 28.7231 40.9674 29.2299 41.1987 29.7184C41.2464 29.8192 41.2938 29.9192 41.34 30.0166L41.44 30.2364ZM40.71 34.0721C40.71 34.5716 41.11 34.9711 41.61 34.9711C42.11 34.9711 42.52 34.5716 42.52 34.0721C42.52 33.5727 42.11 33.1632 41.61 33.1632C41.11 33.1632 40.71 33.5727 40.71 34.0721ZM34.27 35.6204C34.74 35.1509 35.35 34.9012 36 34.9012C36.65 34.9012 37.26 35.1509 37.72 35.6104C38.18 36.0699 38.43 36.6792 38.43 37.3285C38.42 38.667 37.34 39.7558 36 39.7558C35.35 39.7558 34.74 39.5061 34.28 39.0466C33.82 38.5871 33.57 37.9778 33.57 37.3285V37.3185C33.56 36.6892 33.81 36.0799 34.27 35.6204ZM38.77 40.1054C38.06 40.8147 37.08 41.2542 36 41.2542C34.95 41.2542 33.97 40.8446 33.22 40.1054C32.48 39.3563 32.07 38.3774 32.07 37.3285C32.06 36.2897 32.47 35.3108 33.21 34.5616C33.96 33.8124 34.95 33.4029 36 33.4029C37.05 33.4029 38.04 33.8124 38.78 34.5516C39.52 35.3008 39.93 36.2897 39.93 37.3285C39.92 38.4173 39.48 39.3962 38.77 40.1054Z" fill="white"/>
</svg>
