<svg width="52" height="52" viewBox="0 0 52 52" fill="none" xmlns="http://www.w3.org/2000/svg">
<circle cx="26" cy="26" r="25.5" fill="#022150" stroke="#4E4E4E"/>
<path fill-rule="evenodd" clip-rule="evenodd" d="M22.3884 34.3337H29.6106C32.4359 34.3337 34.3333 32.3519 34.3333 29.4031V22.5976C34.3333 19.6488 32.4359 17.667 29.6115 17.667H22.3884C19.564 17.667 17.6666 19.6488 17.6666 22.5976V29.4031C17.6666 32.3519 19.564 34.3337 22.3884 34.3337ZM23.0823 25.167C21.9335 25.167 21 24.2322 21 23.0837C21 21.9351 21.9335 21.0003 23.0823 21.0003C24.2304 21.0003 25.1647 21.9351 25.1647 23.0837C25.1647 24.2322 24.2304 25.167 23.0823 25.167ZM32.5173 28.4453C32.7964 29.1608 32.6514 30.0208 32.3531 30.7294C31.9994 31.5722 31.3223 32.2103 30.4693 32.489C30.0905 32.6128 29.6933 32.667 29.2969 32.667H22.2738C21.575 32.667 20.9565 32.4993 20.4495 32.1871C20.132 31.991 20.0758 31.5387 20.3113 31.2454C20.7051 30.7552 21.094 30.2633 21.4861 29.7671C22.2336 28.8177 22.7372 28.5425 23.297 28.7841C23.5241 28.8839 23.752 29.0335 23.9867 29.1918C24.6118 29.6166 25.4808 30.2005 26.6255 29.5667C27.4088 29.128 27.8631 28.3754 28.2588 27.7201L28.2654 27.7091C28.2934 27.6633 28.3211 27.6174 28.3487 27.5716L28.3489 27.5713L28.3489 27.5713C28.4819 27.3513 28.6131 27.1343 28.7615 26.9343C28.9475 26.684 29.6372 25.9014 30.5305 26.4587C31.0994 26.8096 31.5779 27.2843 32.0899 27.7926C32.2852 27.9869 32.4243 28.2079 32.5173 28.4453Z" fill="white"/>
</svg>
