<svg width="20" height="20" viewBox="0 0 20 20" fill="none" xmlns="http://www.w3.org/2000/svg">
<path d="M19.7665 10.2094C19.7665 9.52763 19.7111 8.84214 19.593 8.17139H10.1167V12.0337H15.5433C15.3181 13.2794 14.5946 14.3814 13.5351 15.0816V17.5877H16.7726C18.6738 15.8408 19.7665 13.261 19.7665 10.2094Z" fill="#4285F4"/>
<path d="M10.0701 20.0001C12.7805 20.0001 15.0662 19.1135 16.7316 17.5831L13.4932 15.0816C12.5922 15.6922 11.429 16.038 10.0738 16.038C7.45202 16.038 5.22905 14.2759 4.43144 11.9067H1.0896V14.4856C2.7956 17.8664 6.27037 20.0001 10.0701 20.0001Z" fill="#34A853"/>
<path d="M4.4358 11.9634C4.0121 10.7149 4.0121 9.36307 4.4358 8.11463V5.52539H1.07596C-0.358655 8.36579 -0.358655 11.7122 1.07596 14.5526L4.4358 11.9634Z" fill="#FBBC04"/>
<path d="M10.0787 3.96062C11.5128 3.93856 12.8989 4.47538 13.9375 5.46077L16.8094 2.60387C14.9909 0.905175 12.5773 -0.0287403 10.0787 0.000674327C6.27534 0.000674327 2.79723 2.13324 1.0896 5.51592L4.43094 8.09338C5.22562 5.72183 7.45442 3.96062 10.0787 3.96062Z" fill="#EA4335"/>
</svg>
