<svg width="52" height="52" viewBox="0 0 52 52" fill="none" xmlns="http://www.w3.org/2000/svg">
<circle cx="26" cy="26" r="25.5" fill="#022150" stroke="#4E4E4E"/>
<path fill-rule="evenodd" clip-rule="evenodd" d="M17.6667 25.9993C17.6667 21.4002 21.4001 17.666 26.0001 17.666C30.6084 17.666 34.3334 21.4002 34.3334 25.9993C34.3334 30.6002 30.6084 34.3327 26.0001 34.3327C21.4001 34.3327 17.6667 30.6002 17.6667 25.9993ZM25.2667 22.841C25.2667 22.4418 25.6001 22.1077 26.0001 22.1077C26.4001 22.1077 26.7251 22.4418 26.7251 22.841V26.5243C26.7251 26.9252 26.4001 27.2493 26.0001 27.2493C25.6001 27.2493 25.2667 26.9252 25.2667 26.5243V22.841ZM26.0084 29.9002C25.6001 29.9002 25.2751 29.5668 25.2751 29.1668C25.2751 28.7668 25.6001 28.4418 26.0001 28.4418C26.4084 28.4418 26.7334 28.7668 26.7334 29.1668C26.7334 29.5668 26.4084 29.9002 26.0084 29.9002Z" fill="white"/>
</svg>
