<svg width="160" height="160" viewBox="0 0 160 160" fill="none" xmlns="http://www.w3.org/2000/svg">
<mask id="mask0_22_281" style="mask-type:alpha" maskUnits="userSpaceOnUse" x="0" y="0" width="160" height="160">
<path d="M80 160C124.183 160 160 124.183 160 80C160 35.8172 124.183 0 80 0C35.8172 0 0 35.8172 0 80C0 124.183 35.8172 160 80 160Z" fill="#D9E8FF"/>
</mask>
<g mask="url(#mask0_22_281)">
<path d="M80 160C124.183 160 160 124.183 160 80C160 35.8172 124.183 0 80 0C35.8172 0 0 35.8172 0 80C0 124.183 35.8172 160 80 160Z" fill="#98CBFF"/>
<path d="M154.871 95.728C128.954 96.9185 109.517 111.107 103.038 118.053C93.9675 118.053 72.457 116.713 58.9805 111.355C42.1348 104.658 11.683 100.937 1.96432 86.7986C-5.81061 75.4876 -22.4403 74.1482 -29.7833 74.8923V118.053L95.9114 131.447L213.831 118.053V59.2651C191.154 60.7534 187.267 94.2398 154.871 95.728Z" fill="#D9E8FF"/>
<rect x="0.480957" y="118.468" width="213.126" height="77.1406" fill="#418CFC"/>
<g filter="url(#filter0_d_22_281)">
<path d="M133.713 42.1738H41.1914C35.5391 42.1738 30.957 46.6913 30.957 52.2638V155.62C30.957 161.192 35.5391 165.71 41.1914 165.71H133.713C139.365 165.71 143.947 161.192 143.947 155.62V52.2638C143.947 46.6913 139.365 42.1738 133.713 42.1738Z" fill="#2D42C5"/>
</g>
<path d="M130.548 40.7368H37.7666C32.0984 40.7368 27.5034 45.3318 27.5034 50.9999V156.13C27.5034 161.798 32.0984 166.393 37.7666 166.393H130.548C136.216 166.393 140.811 161.798 140.811 156.13V50.9999C140.811 45.3318 136.216 40.7368 130.548 40.7368Z" fill="url(#paint0_linear_22_281)"/>
<path d="M85.2721 65.0276C96.6382 65.0276 105.852 55.8135 105.852 44.4474C105.852 33.0812 96.6382 23.8672 85.2721 23.8672C73.906 23.8672 64.6919 33.0812 64.6919 44.4474C64.6919 55.8135 73.906 65.0276 85.2721 65.0276Z" fill="#1E276F"/>
<path d="M85.2717 43.6666C88.3986 43.6666 90.9335 41.0996 90.9335 37.9329C90.9335 34.7663 88.3986 32.1992 85.2717 32.1992C82.1447 32.1992 79.6099 34.7663 79.6099 37.9329C79.6099 41.0996 82.1447 43.6666 85.2717 43.6666Z" fill="white"/>
<path d="M90.1244 44.6531C89.83 44.5116 89.5064 44.442 89.1799 44.4498C88.8534 44.4576 88.5334 44.5427 88.2461 44.698C87.3241 45.1704 86.303 45.4168 85.2669 45.4168C84.2309 45.4168 83.2098 45.1704 82.2878 44.698C82.0005 44.5427 81.6805 44.4576 81.354 44.4498C81.0275 44.442 80.7039 44.5116 80.4095 44.6531C78.9322 45.386 77.6342 46.435 76.6076 47.7256C75.581 49.0163 74.8509 50.5169 74.4691 52.1212C74.3933 52.4298 74.3882 52.7515 74.454 53.0624C74.5199 53.3732 74.655 53.6652 74.8494 53.9166C75.0437 54.1679 75.2923 54.3722 75.5766 54.5141C75.8608 54.6561 76.1735 54.7321 76.4912 54.7365H94.0877C94.406 54.7338 94.7195 54.6589 95.0047 54.5175C95.2898 54.376 95.5391 54.1717 95.7338 53.9199C95.9285 53.6681 96.0635 53.3754 96.1286 53.0638C96.1938 52.7523 96.1873 52.43 96.1097 52.1212C95.7248 50.512 94.9885 49.0079 93.9537 47.7167C92.9189 46.4255 91.6112 45.3793 90.1244 44.6531Z" fill="white"/>
<path d="M54.2305 78.1864L115.468 78.1055" stroke="white" stroke-width="4" stroke-linecap="round" stroke-linejoin="round"/>
<path d="M59.6499 92.1684L107.766 92.1055" stroke="white" stroke-width="4" stroke-linecap="round" stroke-linejoin="round"/>
<path d="M54.2305 110.186L115.468 110.105" stroke="white" stroke-width="4" stroke-linecap="round" stroke-linejoin="round"/>
<path d="M59.6499 124.168L107.766 124.105" stroke="white" stroke-width="4" stroke-linecap="round" stroke-linejoin="round"/>
<path d="M164.375 135.504C164.164 135.305 163.916 135.15 163.645 135.047C163.373 134.944 163.085 134.896 162.795 134.905C162.505 134.915 162.22 134.981 161.956 135.101C161.692 135.22 161.454 135.391 161.256 135.602L147.111 150.728L141.862 144.437C141.475 144.027 140.946 143.781 140.383 143.749C139.82 143.716 139.266 143.901 138.834 144.263C138.402 144.626 138.125 145.14 138.06 145.7C137.995 146.26 138.146 146.824 138.483 147.277L145.026 155.077C145.136 155.302 145.286 155.506 145.466 155.679C145.877 156.06 146.416 156.271 146.976 156.273H147.057C147.575 156.272 148.077 156.091 148.477 155.76C148.659 155.598 148.816 155.411 148.944 155.203L164.492 138.586C164.878 138.158 165.081 137.597 165.06 137.021C165.038 136.445 164.792 135.901 164.375 135.504Z" fill="white"/>
</g>
<defs>
<filter id="filter0_d_22_281" x="22.957" y="38.1738" width="128.99" height="139.536" filterUnits="userSpaceOnUse" color-interpolation-filters="sRGB">
<feFlood flood-opacity="0" result="BackgroundImageFix"/>
<feColorMatrix in="SourceAlpha" type="matrix" values="0 0 0 0 0 0 0 0 0 0 0 0 0 0 0 0 0 0 127 0" result="hardAlpha"/>
<feOffset dy="4"/>
<feGaussianBlur stdDeviation="4"/>
<feColorMatrix type="matrix" values="0 0 0 0 0 0 0 0 0 0 0 0 0 0 0 0 0 0 0.12 0"/>
<feBlend mode="normal" in2="BackgroundImageFix" result="effect1_dropShadow_22_281"/>
<feBlend mode="normal" in="SourceGraphic" in2="effect1_dropShadow_22_281" result="shape"/>
</filter>
<linearGradient id="paint0_linear_22_281" x1="84.1573" y1="40.7368" x2="84.431" y2="206.651" gradientUnits="userSpaceOnUse">
<stop stop-color="#156CF7"/>
<stop offset="1" stop-color="#3368BE"/>
</linearGradient>
</defs>
</svg>
