<svg width="35" height="34" viewBox="0 0 35 34" fill="none" xmlns="http://www.w3.org/2000/svg">
<path d="M20.6647 19.4227L22.7064 15.9943C22.8376 15.7818 22.7793 15.5127 22.5897 15.3568L20.4314 13.7135C20.4751 13.4018 20.5043 13.076 20.5043 12.7502C20.5043 12.4243 20.4751 12.0985 20.4314 11.7727L22.5897 10.1293C22.7793 9.9735 22.8376 9.70433 22.7064 9.49183L20.6647 6.0635C20.5335 5.851 20.271 5.766 20.0376 5.851L17.5001 6.84266C16.9751 6.446 16.4064 6.12016 15.7793 5.86516L15.4001 3.24433C15.3757 3.12975 15.3118 3.02667 15.2191 2.95201C15.1263 2.87735 15.0102 2.83556 14.8897 2.8335H10.8064C10.5585 2.8335 10.3397 3.01766 10.296 3.2585L9.91681 5.87933C9.30431 6.13433 8.72098 6.46016 8.19598 6.85683L5.65848 5.86516C5.42515 5.78016 5.16265 5.86516 5.0314 6.07766L2.98973 9.506C2.85848 9.7185 2.91681 9.98766 3.1064 10.1435L5.26473 11.7868C5.22098 12.0985 5.19181 12.4243 5.19181 12.7502C5.19181 13.076 5.22098 13.4018 5.26473 13.7277L3.1064 15.371C2.91681 15.5268 2.85848 15.796 2.98973 16.0085L5.0314 19.4368C5.16265 19.6493 5.42515 19.7343 5.65848 19.6493L8.19598 18.6577C8.72098 19.0543 9.28973 19.3802 9.91681 19.6352L10.296 22.256C10.3397 22.4827 10.5585 22.6668 10.8064 22.6668H14.8897C15.1376 22.6668 15.3564 22.4827 15.4001 22.2418L15.7793 19.621C16.3918 19.366 16.9751 19.0402 17.5001 18.6435L20.0376 19.6352C20.271 19.7202 20.5335 19.6352 20.6647 19.4227ZM12.8481 15.5835C11.2439 15.5835 9.9314 14.3085 9.9314 12.7502C9.9314 11.1918 11.2439 9.91683 12.8481 9.91683C14.4522 9.91683 15.7647 11.1918 15.7647 12.7502C15.7647 14.3085 14.4522 15.5835 12.8481 15.5835ZM31.9668 26.4493L30.5668 25.401C30.596 25.2027 30.6251 24.9902 30.6251 24.7777C30.6251 24.5652 30.6106 24.3527 30.5668 24.1543L31.9522 23.106C32.0689 23.0068 32.1126 22.8368 32.0251 22.6952L30.7126 20.4993C30.6397 20.3577 30.4647 20.3152 30.3043 20.3577L28.6856 20.9952C28.3501 20.7402 27.9856 20.5277 27.5772 20.3718L27.3293 18.7002C27.3235 18.6244 27.289 18.5535 27.2324 18.5011C27.1758 18.4488 27.1012 18.4187 27.0231 18.4168H24.4126C24.2522 18.4168 24.1064 18.5302 24.0918 18.686L23.8439 20.3577C23.4501 20.5277 23.071 20.726 22.7356 20.981L21.1168 20.3435C21.0425 20.3163 20.9607 20.3157 20.8859 20.3416C20.8111 20.3676 20.7483 20.4184 20.7085 20.4852L19.396 22.681C19.3231 22.8227 19.3376 22.9927 19.4689 23.0918L20.8543 24.1402C20.7942 24.5537 20.7942 24.9733 20.8543 25.3868L19.4689 26.4352C19.3522 26.5343 19.3085 26.7043 19.396 26.846L20.7085 29.0418C20.7814 29.1835 20.9564 29.226 21.1168 29.1835L22.7356 28.546C23.071 28.801 23.4356 29.0135 23.8439 29.1693L24.0918 30.841C24.121 30.9968 24.2522 31.1102 24.4126 31.1102H27.0231C27.1835 31.1102 27.3293 30.9968 27.3439 30.841L27.5918 29.1693C27.9856 28.9993 28.3647 28.801 28.6856 28.546L30.3189 29.1835C30.4647 29.2402 30.6397 29.1835 30.7272 29.0418L32.0397 26.846C32.1272 26.7185 32.0835 26.5485 31.9668 26.4493ZM25.7106 26.676C25.1882 26.6758 24.6874 26.4741 24.3181 26.1151C23.9489 25.7562 23.7416 25.2695 23.7418 24.7621C23.742 24.2547 23.9497 23.7681 24.3192 23.4094C24.6887 23.0508 25.1897 22.8494 25.712 22.8496C26.2344 22.8498 26.7352 23.0515 27.1044 23.4104C27.4737 23.7694 27.681 24.2561 27.6808 24.7635C27.6806 25.2709 27.4729 25.7575 27.1034 26.1161C26.7339 26.4748 26.2329 26.6762 25.7106 26.676Z" fill="#022150"/>
</svg>
