<svg id="Layer_1" fill='#022150' enable-background="new 0 0 68 68" height="512" viewBox="0 0 68 68" width="512" xmlns="http://www.w3.org/2000/svg"><g><path d="m59.67712 18.28967c-.00916-.02771-.01672-.05457-.02905-.08093-.03369-.07251-.07751-.14075-.13501-.2019-.00378-.00403-.00525-.00977-.00916-.01367l-.0039-.00391c-.00024-.00024-.00049-.00073-.00073-.00098l-15.77002-15.77002c-.06299-.06299-.13867-.10864-.21863-.14502-.02356-.01099-.04749-.01733-.07214-.02563-.06238-.02124-.12549-.03369-.19153-.03821-.01624-.0011-.03089-.0094-.04724-.0094h-27.875c-2.20947 0-4.00684 1.79785-4.00684 4.00684v36.02319h-1.0415c-1.10449 0-2 .89526-2 2v10.646c0 1.10474.89551 2 2 2h1.0415v5.31714c0 2.20898 1.79736 4.00684 4.00684 4.00684h40.39209c2.20947 0 4.00684-1.79785 4.00684-4.00684v-43.46973c0-.01807-.00903-.03406-.01025-.05188-.00453-.06226-.01649-.12232-.03627-.18189zm-3.96032 46.21033h-40.39209c-1.38232 0-2.50684-1.125-2.50684-2.50684v-5.31714h21.64551c1.27417 0 2.30688-1.03271 2.30688-2.30688v-10.03223c0-1.27417-1.03271-2.30688-2.30688-2.30688h-21.64551v-36.02319c0-1.38184 1.12451-2.50684 2.50684-2.50684h27.12451v11.76831c0 2.20996 1.80005 4.00989 4.01001 4.00989h11.7644v42.71497c0 1.38183-1.12451 2.50683-2.50683 2.50683zm-35.98291-14.95996c.14453.21484.2168.48535.2168.81348 0 .21191-.03906.42188-.1167.62988-.07813.20898-.19189.39648-.34229.56348-.1499.16602-.3374.30078-.56299.4043-.2251.10254-.48486.1543-.77979.1543h-2.65186c-.06152 0-.11426-.02246-.15869-.06738-.04443-.04395-.06689-.09668-.06689-.1582v-5.3877c0-.06152.02246-.11426.06689-.1582.04443-.04492.09717-.06738.15869-.06738h2.46045c.35547 0 .65283.05469.89209.16309s.43115.24414.57568.4082.24854.3418.3125.53418c.06396.19141.09619.37109.09619.53809s-.02246.31543-.06689.44629-.09863.24121-.1626.33301-.12793.16895-.19189.22949c-.06396.06152-.11523.10352-.1543.125.17237.11716.33107.2822.4756.49607zm4.20361-3.08984c.05029-.05566.10303-.09961.15869-.13281.05518-.03418.12744-.05078.2168-.05078h.76709c.06104 0 .11377.02246.15869.06738.04443.04395.06641.09668.06641.1582 0 .04492-.0166.08594-.0498.125l-2.24365 2.44336 2.41064 2.69434c.02734.02832.04443.05273.0498.0752s.0083.03906.0083.0498c0 .06152-.02246.11426-.06689.1582-.04443.04492-.09717.06738-.1582.06738h-.79248c-.11133 0-.2002-.0293-.2666-.08789-.06689-.05859-.10596-.09277-.11719-.10449l-1.95996-2.20996v2.17676c0 .06152-.02197.11426-.06641.1582-.04492.04492-.09766.06738-.15869.06738h-.67529c-.06152 0-.11426-.02246-.15869-.06738-.04443-.04395-.06689-.09668-.06689-.1582v-5.3877c0-.06152.02246-.11426.06689-.1582.04443-.04492.09717-.06738.15869-.06738h.67529c.06104 0 .11377.02246.15869.06738.04443.04395.06641.09668.06641.1582v1.95996zm5.91357 2.47753c.06104 0 .11377.02246.1582.06641.04443.04492.06689.09766.06689.1582v.59277c0 .06055-.02246.11426-.06689.1582-.04443.04492-.09717.06641-.1582.06641h-2.49414v1.91016c0 .06152-.02197.11426-.06641.1582-.04492.04492-.09766.06738-.15869.06738h-.67529c-.06152 0-.11426-.02246-.15869-.06738-.04443-.04395-.06689-.09668-.06689-.1582v-5.3877c0-.06152.02246-.11426.06689-.1582.04443-.04492.09717-.06738.15869-.06738h3.56104c.06104 0 .11426.02246.15869.06738.04443.04395.06641.09668.06641.1582v.5918c0 .06152-.02197.11426-.06641.15918-.04443.04395-.09766.06641-.15869.06641h-2.66064v1.61816z"/><path d="m48.3208 28.37012h-25.6001c-.41406 0-.75.33594-.75.75s.33594.75.75.75h25.6001c.41406 0 .75-.33594.75-.75s-.33594-.75-.75-.75z"/><path d="m22.7207 24.04004h12.7998c.41406 0 .75-.33594.75-.75s-.33594-.75-.75-.75h-12.7998c-.41406 0-.75.33594-.75.75s.33594.75.75.75z"/><path d="m48.3208 34.19922h-25.6001c-.41406 0-.75.33594-.75.75s.33594.75.75.75h25.6001c.41406 0 .75-.33594.75-.75s-.33594-.75-.75-.75z"/><path d="m17.94043 49.63672h-1.54297v1.42578h1.54297c.30566 0 .52979-.06543.67139-.19629.14209-.12988.21289-.30078.21289-.5127 0-.21094-.07373-.38379-.22119-.5166-.14747-.13378-.36817-.20019-.66309-.20019z"/><path d="m18.50781 48.43164c.1333-.1084.2002-.26855.2002-.47949 0-.21191-.06689-.37207-.2002-.48047s-.34473-.16211-.63379-.16211h-1.47656v1.28418h1.47656c.28907 0 .50049-.05371.63379-.16211z"/></g></svg>